{"title":"Caught.in.the.Web.2012.HDTV.720p.x264.AC3-HD","uid":7559474,"size":5634709344,"categoryP":"video","categoryS":"hd___movies","magnet":"?xt=urn:btih:0260bf001752912cd6886f8c2dd77afe5bdc6807&amp;dn=Caught.in.the.Web.2012.HDTV.720p.x264.AC3-HD&amp;tr=udp%3A%2F%2Ftracker.openbittorrent.com%3A80&amp;tr=udp%3A%2F%2Fopen.demonii.com%3A1337&amp;tr=udp%3A%2F%2Ftracker.coppersurfer.tk%3A6969&amp;tr=udp%3A%2F%2Fexodus.desync.com%3A6969","seeders":1,"leechers":1,"uploader":"xxbel","files":-1,"time":1345706338,"description":"\nDO CLICK ON MY ID--- xxbel ----TO FIND MORE ASIAN FLICKS :)\n\n==========================================================\nGeneral\nCaught.in.the.Web.2012.HDTV.720p.x264.AC3.mkv\nFormat                                   : Matroska\nFormat version                           : Version 2\nFile size                                : 5.25 GiB\nDuration                                 : 2h 0mn\nOverall bit rate                         : 6 249 Kbps\nEncoded date                             : UTC 2012-07-19 02:31:18\nWriting application                      : mkvmerge v5.4.0 ('Piper') built on Mar 10 2012 13:34:39\nWriting library                          : libebml v1.2.3 + libmatroska v1.3.0\n\nVideo\nID                                       : 1\nFormat                                   : AVC\nFormat/Info                              : Advanced Video Codec\nFormat profile                           : &lt;a class=&quot;__cf_email__&quot; href=&quot;/cdn-cgi/l/email-protection&quot; data-cfemail=&quot;0e466769664e423a203f&quot;&gt;[email&amp;#160;protected]&lt;/a&gt;&lt;script data-cfhash='f9e31' type=&quot;text/javascript&quot;&gt;\n/* &lt;![CDATA[ */!function(){try{var t=&quot;currentScript&quot;in document?document.currentScript:function(){for(var t=document.getElementsByTagName(&quot;script&quot;),e=t.length;e--;)if(t[e].getAttribute(&quot;data-cfhash&quot;))return t[e]}();if(t&amp;&amp;t.previousSibling){var e,r,n,i,c=t.previousSibling,a=c.getAttribute(&quot;data-cfemail&quot;);if(a){for(e=&quot;&quot;,r=parseInt(a.substr(0,2),16),n=2;a.length-n;n+=2)i=parseInt(a.substr(n,2),16)^r,e+=String.fromCharCode(i);e=document.createTextNode(e),c.parentNode.replaceChild(e,c)}t.parentNode.removeChild(t);}}catch(u){}}()/* ]]&gt; */&lt;/script&gt;\nFormat settings, CABAC                   : Yes\nFormat settings, ReFrames                : 9 frames\nMuxing mode                              : Header stripping\nCodec ID                                 : V_MPEG4/ISO/AVC\nDuration                                 : 2h 0mn\nBit rate                                 : 6 057 Kbps\nWidth                                    : 1 280 pixels\nHeight                                   : 534 pixels\nDisplay aspect ratio                     : 2.40:1\nFrame rate                               : 24.000 fps\nColor space                              : YUV\nChroma subsampling                       : 4:2:0\nBit depth                                : 8 bits\nScan type                                : Progressive\nBits/(Pixel*Frame)                       : 0.369\nStream size                              : 4.98 GiB (95%)\nWriting library                          : x264 core 125 r2200 999b753\nForced                                   : No\nAudio\nID                                       : 2\nFormat                                   : AC-3\nFormat/Info                              : Audio Coding 3\nMode extension                           : CM (complete main)\nFormat settings, Endianness              : Big\nMuxing mode                              : Header stripping\nCodec ID                                 : A_AC3\nDuration                                 : 2h 0mn\nBit rate mode                            : Constant\nBit rate                                 : 192 Kbps\nChannel(s)                               : 2 channels\nChannel positions                        : Front: L R\nSampling rate                            : 44.1 KHz\nBit depth                                : 16 bits\nCompression mode                         : Lossy\nStream size                              : 165 MiB (3%)\nDefault                                  : Yes\nForced                                   : No\n\nScreens: &lt;a href=&quot;\nhttp://t.imgbox.com/acyhsKo8.jpg&quot; rel=&quot;nofollow&quot; target=&quot;_NEW&quot;&gt;\nhttp://t.imgbox.com/acyhsKo8.jpg&lt;/a&gt; &lt;a href=&quot;\nhttp://t.imgbox.com/abkNElYD.jpg&quot; rel=&quot;nofollow&quot; target=&quot;_NEW&quot;&gt;\nhttp://t.imgbox.com/abkNElYD.jpg&lt;/a&gt; &lt;a href=&quot;\nhttp://t.imgbox.com/adypa4sV.jpg&quot; rel=&quot;nofollow&quot; target=&quot;_NEW&quot;&gt;\nhttp://t.imgbox.com/adypa4sV.jpg&lt;/a&gt;","torrent":{"xt":"urn:btih:0260bf001752912cd6886f8c2dd77afe5bdc6807","amp;dn":"Caught.in.the.Web.2012.HDTV.720p.x264.AC3-HD","amp;tr":["udp%3A%2F%2Ftracker.openbittorrent.com%3A80","udp%3A%2F%2Fopen.demonii.com%3A1337","udp%3A%2F%2Ftracker.coppersurfer.tk%3A6969","udp%3A%2F%2Fexodus.desync.com%3A6969"],"infoHash":"0260bf001752912cd6886f8c2dd77afe5bdc6807","infoHashBuffer":{"type":"Buffer","data":[2,96,191,0,23,82,145,44,214,136,111,140,45,215,122,254,91,220,104,7]},"announce":[],"urlList":[]}}